<svg width="48" height="48" viewBox="0 0 48 48" fill="none" xmlns="http://www.w3.org/2000/svg">
<rect width="48" height="48" fill="white"/>
<rect width="48" height="48" fill="#F5F7F9"/>
<mask id="path-2-inside-1_569_41" fill="white">
<path fill-rule="evenodd" clip-rule="evenodd" d="M43.7822 46C45.439 46 46.8162 44.6384 46.4316 43.0268C44.5293 35.0555 35.1125 29 23.7822 29C12.4519 29 3.03507 35.0555 1.13273 43.0268C0.748126 44.6384 2.12531 46 3.78216 46H43.7822Z"/>
</mask>
<path d="M46.4316 43.0268L43.5135 43.7232L46.4316 43.0268ZM23.7822 32C34.3151 32 42.0531 37.6035 43.5135 43.7232L49.3496 42.3304C47.0054 32.5076 35.9098 26 23.7822 26V32ZM4.05079 43.7232C5.51125 37.6035 13.2492 32 23.7822 32V26C11.6545 26 0.558892 32.5076 -1.78532 42.3304L4.05079 43.7232ZM3.78216 49H43.7822V43H3.78216V49ZM-1.78532 42.3304C-2.73628 46.3152 0.72103 49 3.78216 49V43C3.76268 43 3.80878 42.9887 3.88992 43.076C3.93636 43.126 3.99864 43.2158 4.03669 43.3494C4.07706 43.4911 4.07382 43.6267 4.05079 43.7232L-1.78532 42.3304ZM43.5135 43.7232C43.4905 43.6267 43.4873 43.4911 43.5276 43.3494C43.5657 43.2158 43.628 43.126 43.6744 43.076C43.7555 42.9887 43.8016 43 43.7822 43V49C46.8433 49 50.3006 46.3152 49.3496 42.3304L43.5135 43.7232Z" fill="#152C5B" mask="url(#path-2-inside-1_569_41)"/>
<circle cx="23.9531" cy="13" r="10.5" stroke="#FF4B07" stroke-width="3"/>
</svg>
