<svg width="48" height="48" viewBox="0 0 48 48" fill="none" xmlns="http://www.w3.org/2000/svg">
<g clip-path="url(#clip0_569_41)">
<rect width="48" height="48" fill="white"/>
<rect width="48" height="48" fill="#F5F7F9"/>
<mask id="path-2-inside-1_569_41" fill="white">
<path fill-rule="evenodd" clip-rule="evenodd" d="M3.94652 45.008C3.72314 46.6497 5.0879 48 6.74476 48H40.8064C42.4633 48 43.828 46.6497 43.6047 45.008C42.2194 34.8272 33.8694 27 23.7756 27C13.6818 27 5.33174 34.8272 3.94652 45.008Z"/>
</mask>
<path d="M43.6047 45.008L40.632 45.4125L43.6047 45.008ZM6.74476 51H40.8064V45H6.74476V51ZM23.7756 30C32.2419 30 39.4315 36.5892 40.632 45.4125L46.5773 44.6035C45.0073 33.0653 35.4969 24 23.7756 24V30ZM6.91913 45.4125C8.11965 36.5892 15.3093 30 23.7756 30V24C12.0543 24 2.54384 33.0653 0.973911 44.6035L6.91913 45.4125ZM40.8064 51C43.9922 51 47.0831 48.3209 46.5773 44.6035L40.632 45.4125C40.6243 45.3552 40.629 45.2763 40.6565 45.1961C40.6823 45.1208 40.7186 45.0711 40.7451 45.0435C40.7923 44.9942 40.8199 45 40.8064 45V51ZM6.74476 45C6.7313 45 6.75887 44.9942 6.80611 45.0435C6.8326 45.0711 6.8689 45.1208 6.89468 45.1961C6.92214 45.2763 6.92692 45.3552 6.91913 45.4125L0.973911 44.6035C0.468112 48.3209 3.559 51 6.74476 51V45Z" fill="#152C5B" mask="url(#path-2-inside-1_569_41)"/>
<circle cx="23.5" cy="13.5" r="12" stroke="#FF4B07" stroke-width="3"/>
</g>
<defs>
<clipPath id="clip0_569_41">
<rect width="48" height="48" fill="white"/>
</clipPath>
</defs>
</svg>
