<svg width="48" height="48" viewBox="0 0 48 48" fill="none" xmlns="http://www.w3.org/2000/svg">
<g clip-path="url(#clip0_619_6)">
<rect width="48" height="48" fill="white"/>
<rect width="48" height="48" fill="#F5F7F9"/>
<rect x="13" y="18" width="30" height="12" rx="3" fill="#152C5B"/>
<path d="M5.43644 24.378C5.20621 24.1786 5.2062 23.8214 5.43644 23.622L16.1727 14.3242C16.4965 14.0437 17 14.2738 17 14.7021L17 33.2979C17 33.7262 16.4965 33.9563 16.1727 33.6758L5.43644 24.378Z" fill="#152C5B"/>
<path d="M21.736 25.408C21.736 25.944 21.36 26.256 20.744 26.256H19.512V24.52H20.712C21.32 24.52 21.736 24.856 21.736 25.408ZM21.592 22.984C21.592 23.496 21.232 23.776 20.64 23.776H19.512V22.184H20.64C21.232 22.184 21.592 22.48 21.592 22.984ZM22.648 25.504C22.648 24.84 22.168 24.248 21.576 24.144C22.112 23.952 22.52 23.544 22.52 22.872C22.52 22.088 21.896 21.44 20.72 21.44H18.6V27H20.824C21.96 27 22.648 26.352 22.648 25.504ZM27.3911 27H28.3511L26.3591 21.432H25.3031L23.3111 27H24.2631L24.6631 25.864H26.9911L27.3911 27ZM26.7351 25.12H24.9191L25.8311 22.536L26.7351 25.12ZM28.9132 24.208C28.9132 25.88 30.1852 27.048 31.7532 27.048C32.9132 27.048 33.9132 26.472 34.3372 25.384H33.2412C32.9452 25.976 32.4172 26.256 31.7532 26.256C30.6492 26.256 29.8492 25.464 29.8492 24.208C29.8492 22.952 30.6492 22.168 31.7532 22.168C32.4172 22.168 32.9452 22.448 33.2412 23.04H34.3372C33.9132 21.952 32.9132 21.368 31.7532 21.368C30.1852 21.368 28.9132 22.544 28.9132 24.208ZM38.4687 27H39.6607L37.2047 24.224L39.6207 21.44H38.4767L36.3167 23.976V21.44H35.4047V27H36.3167V24.512L38.4687 27Z" fill="#F5F7F9"/>
</g>
<defs>
<clipPath id="clip0_619_6">
<rect width="48" height="48" fill="white"/>
</clipPath>
</defs>
</svg>
