<svg width="48" height="48" viewBox="0 0 48 48" fill="none" xmlns="http://www.w3.org/2000/svg">
<rect width="48" height="48" rx="3" fill="#152C5B"/>
<path d="M35 5.99276V8.19C35 9.42032 33.8938 10.3653 32.6635 10.3754C31.2601 10.387 29.6006 10.6171 28.8235 11.5335C27.3412 13.2817 27.8353 19.2755 27.8353 19.2755H32.6157C33.8595 19.2755 34.8016 20.3987 34.5852 21.6234L34.0565 24.6162C33.8877 25.5718 33.0574 26.2683 32.087 26.2683H27.8353V42C27.8353 43.1046 26.9399 44 25.8353 44H22.1765C21.0719 44 20.1765 43.1046 20.1765 42V26.2683H16C14.8954 26.2683 14 25.3729 14 24.2683V21.2755C14 20.1709 14.8954 19.2755 16 19.2755H20.1765C20.1765 19.2755 19.1882 10.0351 22.8941 6.28892C25.3421 3.81434 30.6027 3.87758 33.3116 4.09962C34.2893 4.17975 35 5.01177 35 5.99276Z" fill="white"/>
</svg>
