<svg width="48" height="48" viewBox="0 0 48 48" fill="none" xmlns="http://www.w3.org/2000/svg">
<rect width="48" height="48" fill="white"/>
<rect width="48" height="48" fill="#F5F7F9"/>
<g clip-path="url(#clip0_569_6)">
<rect x="39" y="4" width="3" height="16" rx="1" fill="#FF4B07"/>
<path d="M47.5008 22.3828L25.0009 2.22539C24.4312 1.71502 23.5688 1.71502 22.9991 2.22539L0.499209 22.3828C-0.525956 23.3012 0.123711 25 1.50011 25H46.4999C47.8763 25 48.526 23.3012 47.5008 22.3828Z" fill="#152C5B" stroke="#F5F7F9"/>
<path fill-rule="evenodd" clip-rule="evenodd" d="M6 20C4.34315 20 3 21.3431 3 23V42C3 43.6569 4.34315 45 6 45H16V30.1429C16 28.486 17.3431 27.1429 19 27.1429H29C30.6569 27.1429 32 28.486 32 30.1429V45H42C43.6569 45 45 43.6569 45 42V23C45 21.3431 43.6569 20 42 20H6Z" fill="#152C5B"/>
<path d="M23.3327 2.5978C23.7125 2.25755 24.2875 2.25755 24.6673 2.5978L47.1672 22.7552C47.8506 23.3675 47.4175 24.5 46.4999 24.5H1.50011C0.582513 24.5 0.149401 23.3675 0.832844 22.7552L23.3327 2.5978Z" fill="#152C5B"/>
</g>
<defs>
<clipPath id="clip0_569_6">
<rect width="48" height="48" fill="white"/>
</clipPath>
</defs>
</svg>
