<svg width="48" height="48" viewBox="0 0 48 48" fill="none" xmlns="http://www.w3.org/2000/svg">
<g clip-path="url(#clip0_26_110)">
<rect width="48" height="48" fill="white"/>
<rect width="48" height="48" rx="3" fill="#152C5B"/>
<path d="M15.7324 37H11.4609V17.9805H15.7324V37ZM11.1973 13.041C11.1973 12.3848 11.4023 11.8398 11.8125 11.4062C12.2344 10.9727 12.832 10.7559 13.6055 10.7559C14.3789 10.7559 14.9766 10.9727 15.3984 11.4062C15.8203 11.8398 16.0312 12.3848 16.0312 13.041C16.0312 13.6855 15.8203 14.2246 15.3984 14.6582C14.9766 15.0801 14.3789 15.291 13.6055 15.291C12.832 15.291 12.2344 15.0801 11.8125 14.6582C11.4023 14.2246 11.1973 13.6855 11.1973 13.041ZM24.3633 17.9805L24.4863 20.1777C25.8926 18.4785 27.7383 17.6289 30.0234 17.6289C33.9844 17.6289 36 19.8965 36.0703 24.4316V37H31.7988V24.6777C31.7988 23.4707 31.5352 22.5801 31.0078 22.0059C30.4922 21.4199 29.6426 21.127 28.459 21.127C26.7363 21.127 25.4531 21.9062 24.6094 23.4648V37H20.3379V17.9805H24.3633Z" fill="#F5F7F9"/>
</g>
<defs>
<clipPath id="clip0_26_110">
<rect width="48" height="48" fill="white"/>
</clipPath>
</defs>
</svg>
